<?xml version="1.0" encoding="utf-8"?>
<!-- Generator: Adobe Illustrator 23.0.0, SVG Export Plug-In . SVG Version: 6.00 Build 0)  -->
<svg version="1.1" id="图层_1" xmlns="http://www.w3.org/2000/svg" xmlns:xlink="http://www.w3.org/1999/xlink" x="0px" y="0px"
	 viewBox="0 0 1920 600" style="enable-background:new 0 0 1920 600;" xml:space="preserve">
<style type="text/css">
	.st0{fill-rule:evenodd;clip-rule:evenodd;fill:#01244E;}
</style>
<g>
	<g>
		<path class="st0" d="M292.73,241.85l67.37-67.38c9.58-9.58,25.27-9.58,34.85,0c9.58,9.58,9.58,25.26,0,34.85l-49.95,49.95
			l49.95,49.95c9.58,9.59,9.58,25.27,0,34.85c-9.58,9.59-25.27,9.59-34.85,0l-67.37-67.37l0,0
			C283.14,267.12,283.14,251.43,292.73,241.85L292.73,241.85z M394.96,174.47L394.96,174.47L394.96,174.47z M394.96,344.08
			L394.96,344.08L394.96,344.08z M402.63,241.85c-9.58,9.58-9.58,25.27,0,34.85L470,344.08c9.59,9.59,25.28,9.59,34.86,0l0,0
			c9.58-9.57,9.57-25.26,0-34.84l-49.96-49.96l49.96-49.95c9.58-9.59,9.57-25.27,0-34.85c-9.58-9.58-25.27-9.58-34.86,0
			L402.63,241.85L402.63,241.85z M504.86,174.47L504.86,174.47L504.86,174.47z M402.63,276.7L402.63,276.7L402.63,276.7z
			 M225.32,276.7l-67.37,67.37c-9.59,9.59-25.28,9.59-34.86,0c-9.57-9.58-9.57-25.26,0.01-34.84l49.95-49.95l-49.96-49.96
			c-9.57-9.59-9.57-25.27,0-34.85c9.58-9.58,25.27-9.58,34.86,0l67.37,67.38l0,0C234.91,251.43,234.91,267.12,225.32,276.7
			L225.32,276.7z M123.08,344.08L123.08,344.08L123.08,344.08z M123.08,174.47L123.08,174.47L123.08,174.47z M115.42,276.7
			c9.58-9.59,9.58-25.27,0-34.85l-67.38-67.38c-9.58-9.58-25.27-9.58-34.85,0l0,0c-9.58,9.58-9.58,25.27,0,34.85l49.95,49.96
			l-49.95,49.95c-9.58,9.58-9.58,25.26,0,34.84c9.58,9.59,25.27,9.59,34.85,0L115.42,276.7L115.42,276.7z M13.19,344.08
			L13.19,344.08L13.19,344.08z M115.42,241.85L115.42,241.85L115.42,241.85z M241.6,225.57c9.58,9.58,25.27,9.58,34.85,0l0,0
			l67.38-67.38c9.58-9.57,9.58-25.26,0-34.84c-9.59-9.59-25.27-9.59-34.85,0l-49.96,49.95l-49.95-49.95
			c-9.58-9.59-25.27-9.59-34.85,0c-9.58,9.58-9.58,25.27,0,34.85L241.6,225.57L241.6,225.57z M174.22,123.35L174.22,123.35
			L174.22,123.35z M343.83,123.35L343.83,123.35L343.83,123.35z M241.59,115.66l-67.37-67.37c-9.58-9.58-9.58-25.27,0-34.85
			c9.58-9.58,25.27-9.58,34.85,0l49.95,49.95l49.96-49.95c9.59-9.58,25.27-9.58,34.85,0l0,0c9.58,9.58,9.58,25.27,0,34.85
			l-67.38,67.37C266.87,125.26,251.19,125.25,241.59,115.66L241.59,115.66z M174.22,13.44L174.22,13.44L174.22,13.44z
			 M276.45,115.66L276.45,115.66L276.45,115.66z M276.45,292.98c-9.58-9.59-25.27-9.59-34.85-0.01l0,0l-67.38,67.38
			c-9.58,9.58-9.58,25.27,0,34.85c9.59,9.58,25.27,9.58,34.85,0l49.95-49.96l49.96,49.96c9.59,9.58,25.27,9.58,34.84,0
			c9.59-9.58,9.59-25.27,0.01-34.85L276.45,292.98L276.45,292.98z M343.82,395.21L343.82,395.21L343.82,395.21z M174.22,395.21
			L174.22,395.21L174.22,395.21z M276.45,402.88l67.38,67.38c9.58,9.58,9.58,25.26,0,34.85c-9.58,9.59-25.28,9.59-34.85,0
			l-49.96-49.96l-49.95,49.96c-9.58,9.59-25.27,9.59-34.85,0l0,0c-9.58-9.59-9.58-25.28,0-34.85l67.38-67.38
			C251.18,393.29,266.86,393.3,276.45,402.88L276.45,402.88z M343.83,505.11L343.83,505.11L343.83,505.11z M241.6,402.88"/>
		<polygon class="st0" points="893.62,121.75 893.62,44.26 715.05,44.26 627.43,44.26 627.43,121.75 627.43,217.78 627.43,295.28 
			627.43,475.53 715.05,475.53 715.05,295.28 853.19,295.28 853.19,217.78 715.05,217.78 715.05,121.75 		"/>
		<path class="st0" d="M913.48,475.53h87.61V319.46c35.64-50.61,77.89-54.12,124.68-25.41v-96.47
			c-46.8-2.98-79.48-7.39-124.68,22.46v-22.46h-87.61v122.97V475.53z"/>
		<path class="st0" d="M1384.07,475.53h92.1V197.58h-92.1v23.49c-25.35-18.53-56.95-29.56-91.17-29.56
			c-83.22,0-150.98,65.15-150.98,145.05c0,79.89,67.76,145.06,150.98,145.06c34.23,0,65.82-11.01,91.17-29.55V475.53L1384.07,475.53
			z M1312.89,269.63c36.89,0,66.94,30.07,66.94,66.93c0,36.85-30.05,66.94-66.94,66.94c-36.91,0-66.95-30.09-66.95-66.94
			C1245.94,299.7,1275.98,269.63,1312.89,269.63z"/>
		<path class="st0" d="M1497.07,598.53h92.07V454.37c24.79,17.14,55.19,27.24,87.98,27.24c83.22,0,150.99-65.16,150.99-145.06
			c0-79.89-67.76-145.05-150.99-145.05c-32.79,0-63.19,10.13-87.98,27.26v-21.19h-92.07V598.53L1497.07,598.53z M1639.81,269.63
			c36.9,0,66.95,30.07,66.95,66.93c0,36.85-30.06,66.94-66.95,66.94c-36.88,0-66.94-30.09-66.94-66.94
			C1572.87,299.7,1602.93,269.63,1639.81,269.63z"/>
		<g>
			<path class="st0" d="M1865.03,63.72c30.25,0,54.97,24.7,54.97,54.97c0,30.29-24.72,54.97-54.97,54.97
				c-30.3,0-54.97-24.68-54.97-54.97C1810.07,88.41,1834.74,63.72,1865.03,63.72L1865.03,63.72z M1865.03,74.49
				c-24.36,0-44.21,19.85-44.21,44.19c0,24.35,19.85,44.21,44.21,44.21c24.33,0,44.19-19.86,44.19-44.21
				C1909.23,94.34,1889.36,74.49,1865.03,74.49z"/>
			<path class="st0" d="M1841.19,145.75V91.62h24c4.81,0,8.49,0.5,10.99,1.48c2.51,0.96,4.51,2.66,6.02,5.13
				c1.51,2.47,2.24,5.19,2.24,8.17c0,3.83-1.22,7.06-3.73,9.7c-2.49,2.62-6.32,4.3-11.53,5.04c1.91,0.92,3.35,1.78,4.34,2.69
				c2.08,1.9,4.05,4.32,5.94,7.2l9.41,14.73h-8.98l-7.18-11.26c-2.09-3.24-3.81-5.74-5.17-7.45c-1.34-1.74-2.59-2.94-3.65-3.61
				c-1.06-0.7-2.15-1.19-3.26-1.47c-0.81-0.18-2.12-0.25-3.98-0.25h-8.3v24.03H1841.19L1841.19,145.75z M1848.35,115.52h15.38
				c3.27,0,5.85-0.35,7.69-1.03c1.84-0.67,3.25-1.76,4.21-3.25c0.95-1.48,1.42-3.11,1.42-4.85c0-2.56-0.92-4.67-2.77-6.32
				c-1.85-1.64-4.8-2.47-8.81-2.47h-17.13V115.52z"/>
		</g>
	</g>
</g>
<g>
</g>
<g>
</g>
<g>
</g>
<g>
</g>
<g>
</g>
<g>
</g>
<g>
</g>
<g>
</g>
<g>
</g>
<g>
</g>
<g>
</g>
<g>
</g>
<g>
</g>
<g>
</g>
<g>
</g>
</svg>
