<svg width="229" height="125" viewBox="0 0 229 125" fill="none" xmlns="http://www.w3.org/2000/svg">
<path d="M182.882 61.455C182.882 61.455 173.702 78.072 173.702 83.77C173.702 89.467 176.708 95.166 182.723 95.166C190.005 95.166 192.694 89.151 192.694 83.77C192.694 78.389 182.882 61.455 182.882 61.455Z" fill="#64AACD"/>
<path d="M183.515 66.52C183.515 66.52 198.393 86.62 185.573 92.475C185.573 92.475 183.674 88.044 185.889 85.511C188.104 82.979 184.938 67.627 183.515 66.52Z" fill="#64AACD"/>
<path d="M119 34H131.039C131.039 34 133.674 37.876 133.434 37.518C133.195 37.159 142.058 37.18 142.058 37.18L144.453 33.059L160.141 32.674C160.141 32.674 162.657 37.514 166.848 37.514C171.038 37.514 188.884 34 188.525 59H177.386C177.386 59 179.184 49.421 168.045 50.261C168.045 50.261 154.991 63 138.823 52H134.631L131.157 54H119V34Z" fill="#000A19"/>
<path d="M165 26H140V34H165V26Z" fill="#000A19"/>
<path d="M161.459 27.022C161.459 27.022 158.823 21.752 152.716 21.873C146.608 21.993 144.692 26.782 144.692 26.782L161.459 27.022Z" fill="#000A19"/>
<path d="M151 24V17H148V10H156V17H154V24" fill="#000A19"/>
<path d="M131 7.021V17.8L148 13.848V10.974L131 7.021Z" fill="#000A19"/>
<path d="M173 7.021V17.8L156 13.848V10.974L173 7.021Z" fill="#000A19"/>
<path d="M160.286 34.79C160.286 34.79 163.127 39.762 173.072 38.874C183.016 37.986 185.679 50.416 185.679 50.416C185.679 50.416 181.774 42.958 174.847 42.958C167.922 42.959 160.997 40.295 160.286 34.79Z" fill="#000A19"/>
<path d="M142.528 27H163V31.771L142.528 27Z" fill="#000A19"/>
<path d="M14.7245 90.36C12.0845 90.36 9.81653 89.832 7.92053 88.776C6.04853 87.696 4.60853 86.184 3.60053 84.24C2.59253 82.272 2.08853 79.956 2.08853 77.292C2.08853 74.628 2.59253 72.324 3.60053 70.38C4.60853 68.436 6.04853 66.936 7.92053 65.88C9.81653 64.8 12.0845 64.26 14.7245 64.26C16.4285 64.26 18.0365 64.524 19.5485 65.052C21.0845 65.58 22.3445 66.336 23.3285 67.32L21.8165 70.992C20.7365 70.08 19.6325 69.42 18.5045 69.012C17.3765 68.58 16.1645 68.364 14.8685 68.364C12.3005 68.364 10.3445 69.144 9.00053 70.704C7.65653 72.24 6.98453 74.436 6.98453 77.292C6.98453 80.148 7.65653 82.356 9.00053 83.916C10.3445 85.476 12.3005 86.256 14.8685 86.256C16.1645 86.256 17.3765 86.052 18.5045 85.644C19.6325 85.212 20.7365 84.54 21.8165 83.628L23.3285 87.3C22.3445 88.26 21.0845 89.016 19.5485 89.568C18.0365 90.096 16.4285 90.36 14.7245 90.36ZM32.6146 90.36C31.3426 90.36 30.2026 90.12 29.1946 89.64C28.2106 89.136 27.4306 88.464 26.8546 87.624C26.3026 86.784 26.0266 85.836 26.0266 84.78C26.0266 83.484 26.3626 82.464 27.0346 81.72C27.7066 80.952 28.7986 80.4 30.3106 80.064C31.8226 79.728 33.8506 79.56 36.3946 79.56H37.6546V78.804C37.6546 77.604 37.3906 76.74 36.8626 76.212C36.3346 75.684 35.4466 75.42 34.1986 75.42C33.2146 75.42 32.2066 75.576 31.1746 75.888C30.1426 76.176 29.0986 76.632 28.0426 77.256L26.7466 74.196C27.3706 73.764 28.1026 73.392 28.9426 73.08C29.8066 72.744 30.7066 72.492 31.6426 72.324C32.6026 72.132 33.5026 72.036 34.3426 72.036C36.9106 72.036 38.8186 72.636 40.0666 73.836C41.3146 75.012 41.9386 76.848 41.9386 79.344V90H37.7266V87.192C37.3186 88.176 36.6706 88.956 35.7826 89.532C34.8946 90.084 33.8386 90.36 32.6146 90.36ZM33.5506 87.264C34.7266 87.264 35.6986 86.856 36.4666 86.04C37.2586 85.224 37.6546 84.192 37.6546 82.944V82.152H36.4306C34.1746 82.152 32.6026 82.332 31.7146 82.692C30.8506 83.028 30.4186 83.652 30.4186 84.564C30.4186 85.356 30.6946 86.004 31.2466 86.508C31.7986 87.012 32.5666 87.264 33.5506 87.264ZM46.9623 90V72.396H51.4623V79.2H59.2383V72.396H63.7383V90H59.2383V82.728H51.4623V90H46.9623ZM72.5726 90V75.924H66.5606V72.396H83.1206V75.924H77.0726V90H72.5726ZM94.4164 90.36C92.4244 90.36 90.7084 89.988 89.2684 89.244C87.8284 88.5 86.7124 87.444 85.9204 86.076C85.1524 84.708 84.7684 83.088 84.7684 81.216C84.7684 79.392 85.1404 77.796 85.8844 76.428C86.6524 75.06 87.6964 73.992 89.0164 73.224C90.3604 72.432 91.8844 72.036 93.5884 72.036C96.0844 72.036 98.0524 72.828 99.4924 74.412C100.956 75.996 101.688 78.156 101.688 80.892V82.224H89.0884C89.4244 85.368 91.2244 86.94 94.4884 86.94C95.4724 86.94 96.4564 86.796 97.4404 86.508C98.4244 86.196 99.3244 85.716 100.14 85.068L101.4 88.092C100.56 88.788 99.5044 89.34 98.2324 89.748C96.9604 90.156 95.6884 90.36 94.4164 90.36ZM93.7684 75.096C92.4484 75.096 91.3804 75.504 90.5644 76.32C89.7484 77.136 89.2564 78.24 89.0884 79.632H97.9444C97.8484 78.168 97.4404 77.052 96.7204 76.284C96.0244 75.492 95.0404 75.096 93.7684 75.096ZM102.945 90L110.325 80.892L103.413 72.396H108.669L112.917 77.832L117.165 72.396H122.421L115.473 80.928L122.889 90H117.597L112.881 84.06L108.201 90H102.945ZM125.501 90V72.396H142.169V90H137.669V75.924H130.001V90H125.501ZM147.334 96.48V72.396H151.726V75.204C152.23 74.244 152.986 73.476 153.994 72.9C155.026 72.324 156.19 72.036 157.486 72.036C159.022 72.036 160.366 72.408 161.518 73.152C162.694 73.896 163.606 74.952 164.254 76.32C164.902 77.664 165.226 79.284 165.226 81.18C165.226 83.052 164.902 84.684 164.254 86.076C163.606 87.444 162.706 88.5 161.554 89.244C160.402 89.988 159.046 90.36 157.486 90.36C156.238 90.36 155.11 90.096 154.102 89.568C153.118 89.016 152.362 88.284 151.834 87.372V96.48H147.334ZM156.226 86.94C157.57 86.94 158.65 86.46 159.466 85.5C160.282 84.516 160.69 83.076 160.69 81.18C160.69 79.26 160.282 77.832 159.466 76.896C158.65 75.936 157.57 75.456 156.226 75.456C154.882 75.456 153.802 75.936 152.986 76.896C152.17 77.832 151.762 79.26 151.762 81.18C151.762 83.076 152.17 84.516 152.986 85.5C153.802 86.46 154.882 86.94 156.226 86.94Z" fill="#000A19"/>
<path d="M211.27 96.48V87.552C210.358 89.424 208.81 90.36 206.626 90.36C205.33 90.36 204.19 89.988 203.206 89.244C202.222 88.476 201.442 87.408 200.866 86.04C200.314 84.648 200.038 83.028 200.038 81.18C200.038 79.308 200.314 77.688 200.866 76.32C201.442 74.952 202.222 73.896 203.206 73.152C204.19 72.408 205.33 72.036 206.626 72.036C207.706 72.036 208.642 72.288 209.434 72.792C210.226 73.272 210.838 73.956 211.27 74.844V64.62H215.77V74.772C216.202 73.908 216.814 73.236 217.606 72.756C218.422 72.276 219.346 72.036 220.378 72.036C221.674 72.036 222.814 72.408 223.798 73.152C224.806 73.896 225.586 74.952 226.138 76.32C226.69 77.688 226.966 79.308 226.966 81.18C226.966 83.028 226.69 84.648 226.138 86.04C225.586 87.408 224.818 88.476 223.834 89.244C222.85 89.988 221.698 90.36 220.378 90.36C218.266 90.36 216.73 89.436 215.77 87.588V96.48H211.27ZM207.958 86.976C208.99 86.976 209.806 86.508 210.406 85.572C211.03 84.612 211.342 83.148 211.342 81.18C211.342 79.236 211.03 77.796 210.406 76.86C209.782 75.9 208.966 75.42 207.958 75.42C206.926 75.42 206.098 75.9 205.474 76.86C204.85 77.796 204.538 79.236 204.538 81.18C204.538 83.148 204.85 84.612 205.474 85.572C206.098 86.508 206.926 86.976 207.958 86.976ZM219.046 86.976C220.102 86.976 220.93 86.508 221.53 85.572C222.154 84.612 222.466 83.148 222.466 81.18C222.466 79.236 222.154 77.796 221.53 76.86C220.906 75.9 220.078 75.42 219.046 75.42C218.014 75.42 217.198 75.9 216.598 76.86C215.998 77.796 215.698 79.236 215.698 81.18C215.698 83.148 215.998 84.612 216.598 85.572C217.198 86.508 218.014 86.976 219.046 86.976Z" fill="#000A19"/>
</svg>
