<?xml version="1.0" encoding="utf-8"?>
<!-- Generator: Adobe Illustrator 25.2.3, SVG Export Plug-In . SVG Version: 6.00 Build 0)  -->
<svg version="1.1" id="Слой_1" xmlns="http://www.w3.org/2000/svg" xmlns:xlink="http://www.w3.org/1999/xlink" x="0px" y="0px"
	 viewBox="0 0 615.26 187.49" style="enable-background:new 0 0 615.26 187.49;" xml:space="preserve">
<style type="text/css">
	.st0{fill:#E30613;}
	.st1{fill:#368D48;}
	.st2{fill:#000101;}
	.st3{fill:#FFFFFF;}
</style>
<g>
	<polyline class="st0" points="229.62,119.01 276.23,38.78 245,38.78 215.15,96.5 197.1,38.78 164.95,38.78 195.26,119.01 
		229.62,119.01 	"/>
	<polyline class="st0" points="418.27,100.84 369.85,100.84 369.85,87.31 412.34,87.31 413.53,68.65 372.62,68.65 373.41,55.89 
		420.24,55.89 421.23,38.78 344.32,38.78 339.44,119.01 417.72,119.55 418.27,100.84 	"/>
	<path class="st0" d="M472.99,38.78h-28.65v15.14h28.65V38.78 M468.65,119.01l3.47-61.54h-28.91l-3.47,61.54H468.65z"/>
	<path class="st0" d="M318.29,38.78h-28.65v15.14h28.65V38.78 M313.94,119.01l3.48-61.54h-28.91l-3.48,61.54H313.94z"/>
	<path class="st0" d="M526.35,118.13V54.09h10.89c6.2-0.32,9.41,2.34,11.05,3.73c1.64,1.38,2.45,3.37,2.45,5.95
		c0,1.76-0.52,3.31-1.55,4.65c-1.03,1.35-2.38,2.19-4.02,2.52c-3.26,0.73-5.44,1.1-6.57,1.1l-9.43,0.26l17.79,45.82h31.81
		c0,0-15.03-31.92-17.19-37.63c3.69-0.84,5.65-1.45,7.77-2.73c3.31-2.01,5.97-5.12,7.68-8.44c1.26-2.44,2.44-4.89,2.44-9.33
		c0-5.1-1.23-9.45-3.71-12.99c-2.48-3.57-5.75-6-9.8-7.31c-4.04-1.32-13.7-1.81-21.36-1.81h-46.28l-5.23,80.23H526.35"/>
	<path class="st0" d="M607.26,36.1c0,4.32-3.52,7.85-7.86,7.85c-4.32,0-7.84-3.53-7.84-7.85c0-4.32,3.52-7.85,7.84-7.85
		C603.74,28.25,607.26,31.78,607.26,36.1 M608.26,36.1c0-4.87-3.97-8.84-8.85-8.84c-4.87,0-8.83,3.98-8.83,8.84
		c0,4.86,3.97,8.84,8.83,8.84C604.29,44.94,608.26,40.96,608.26,36.1z"/>
	<path class="st0" d="M601.87,32.24c0.38,0.33,0.57,0.75,0.57,1.27c0,0.36-0.09,0.69-0.3,1c-0.19,0.29-0.48,0.52-0.86,0.66
		c-0.37,0.13-0.89,0.2-1.56,0.2h-3.15v-3.65h3.5C600.88,31.73,601.48,31.91,601.87,32.24 M596.57,41.54v-4.9h1.7
		c0.38,0,0.65,0.02,0.82,0.05c0.22,0.07,0.45,0.16,0.67,0.3c0.21,0.14,0.46,0.39,0.73,0.74c0.29,0.35,0.63,0.86,1.06,1.52l1.47,2.3
		h1.83l-1.92-3.01c-0.39-0.58-0.79-1.08-1.21-1.46c-0.21-0.19-0.5-0.37-0.88-0.56c1.06-0.15,1.85-0.49,2.35-1.02
		c0.51-0.54,0.76-1.19,0.76-1.98c0-0.61-0.14-1.15-0.45-1.66c-0.31-0.49-0.72-0.85-1.23-1.04c-0.5-0.2-1.26-0.3-2.24-0.3h-4.9v11.02
		H596.57z"/>
	<path class="st1" d="M575.05,162.21v-5.41c0.77-1.32,1.4-2.26,1.87-2.84l3.74-5.65v-0.07h-2.76l-4.19,6.98l-4.23-6.98h-2.78v0.07
		l3.74,5.65c0.05,0.09,0.39,0.55,1.02,1.41c0.37,0.5,0.65,0.98,0.85,1.42v5.41H575.05 M561.21,162.21c0.65,0,1.17-0.08,1.58-0.26
		c0.41-0.2,0.61-0.44,0.61-0.72v-6.01h-6.05v1.08h3.28v4.82h-6.97v-11.76h6.97v3.14h2.76v-3.26c0-0.28-0.2-0.52-0.61-0.71
		c-0.41-0.19-0.93-0.27-1.58-0.27h-8.09c-0.64,0-1.17,0.09-1.58,0.27c-0.41,0.19-0.61,0.42-0.61,0.71v12c0,0.29,0.2,0.53,0.61,0.72
		c0.41,0.18,0.93,0.26,1.58,0.26H561.21z M543.27,161.11h-7.54v-11.76h7.54V161.11z M543.8,162.21c0.65,0,1.18-0.08,1.6-0.26
		c0.41-0.2,0.62-0.44,0.62-0.72v-12c0-0.28-0.21-0.52-0.62-0.71c-0.41-0.19-0.95-0.27-1.6-0.27h-8.62c-0.64,0-1.16,0.09-1.57,0.27
		c-0.42,0.19-0.62,0.42-0.62,0.71v12c0,0.29,0.2,0.53,0.62,0.72c0.41,0.18,0.93,0.26,1.57,0.26H543.8z M529.25,162.21v-1.1h-7.11
		v-12.86h-2.73v13.96H529.25z M511.74,161.11h-7.55v-11.76h7.55V161.11z M512.27,162.21c0.64,0,1.18-0.08,1.59-0.26
		c0.41-0.2,0.61-0.44,0.61-0.72v-12c0-0.28-0.2-0.52-0.61-0.71c-0.42-0.19-0.95-0.27-1.59-0.27h-8.62c-0.64,0-1.17,0.09-1.58,0.27
		c-0.4,0.19-0.6,0.42-0.6,0.71v12c0,0.29,0.2,0.53,0.6,0.72c0.41,0.18,0.94,0.26,1.58,0.26H512.27z M486.42,162.21v-10.27
		l8.23,10.27h1.89v-13.96h-2.58v10.09l-8.07-10.09h-2.05v13.96H486.42z M468.76,162.21v-6.71h7.42v6.71h2.74v-13.96h-2.74v6.13
		h-7.42v-6.13h-2.74v13.96H468.76z M459.01,162.21c0.65,0,1.17-0.08,1.59-0.26c0.42-0.2,0.63-0.44,0.63-0.72v-3.54h-2.75v3.42h-6.85
		v-11.76h6.85v3.14h2.75v-3.26c0-0.28-0.2-0.52-0.63-0.71c-0.42-0.19-0.94-0.27-1.59-0.27h-7.94c-0.65,0-1.17,0.09-1.58,0.27
		c-0.4,0.19-0.6,0.42-0.6,0.71v12c0,0.29,0.21,0.53,0.6,0.72c0.41,0.18,0.94,0.26,1.58,0.26H459.01z M444.61,162.21v-1.1h-7.38
		v-5.43h6.61v-1.12h-6.61v-5.21h7.26v-1.1h-10.01v13.96H444.61z M426.52,162.21v-12.87h4.76v-1.1h-12.3v1.1h4.81v12.87H426.52z
		 M389.82,162.21v-10.27l8.23,10.27h1.89v-13.96h-2.57v10.09l-8.08-10.09h-2.05v13.96H389.82z M379.39,158.01h-5.41l2.71-7.57
		L379.39,158.01z M372.54,162.21l1.08-3.11h6.12l1.1,3.11h2.71l-5.46-14h-2.7l-5.5,13.97v0.03H372.54z M365.98,148.24h-2.74v13.97
		h2.74V148.24z M359.35,162.21v-1.1h-7.12v-12.86h-2.73v13.96H359.35z M341.64,158.01h-5.42l2.72-7.57L341.64,158.01z
		 M334.79,162.21l1.08-3.11h6.12l1.09,3.11h2.72l-5.46-14h-2.69l-5.49,13.97v0.03H334.79z M325.4,162.21v-12.87h4.77v-1.1h-12.3v1.1
		h4.8v12.87H325.4z M314.41,148.24h-2.73v13.97h2.73V148.24z M291.98,162.21v-1.1h-7.12v-12.86h-2.73v13.96H291.98z M274.27,158.01
		h-5.42l2.72-7.57L274.27,158.01z M267.42,162.21l1.08-3.11h6.13l1.08,3.11h2.72l-5.45-14h-2.7l-5.5,13.97v0.03H267.42z
		 M250.96,162.21v-10.27l8.23,10.27h1.89v-13.96h-2.58v10.09l-8.08-10.09h-2.05v13.96H250.96z M243.24,148.24h-2.74v13.97h2.74
		V148.24z M233.27,162.21c0.65,0,1.17-0.08,1.58-0.26c0.41-0.2,0.61-0.44,0.61-0.72v-6.01h-6.05v1.08h3.3v4.82h-6.97v-11.76h6.97
		v3.14h2.76v-3.26c0-0.28-0.2-0.52-0.61-0.71c-0.41-0.19-0.93-0.27-1.58-0.27h-8.09c-0.64,0-1.17,0.09-1.58,0.27
		c-0.4,0.19-0.61,0.42-0.61,0.71v12c0,0.29,0.21,0.53,0.61,0.72c0.41,0.18,0.94,0.26,1.58,0.26H233.27z M217.85,148.24h-2.74v13.97
		h2.74V148.24z M200.48,162.21v-12.87h7.04v5.14h-4.89l-0.38,0.24l5.73,7.48h2.88c-1.76-2.23-3.52-4.47-5.3-6.69
		c0.17,0,0.45,0,0.83,0.01c0.38,0,0.67,0.01,0.87,0.01c1.99,0,2.99-0.33,2.99-1.01v-5.3c0-0.28-0.21-0.52-0.61-0.71
		c-0.4-0.19-0.92-0.27-1.57-0.27h-10.32v13.96H200.48z M190.09,161.11h-7.55v-11.76h7.55V161.11z M190.62,162.21
		c0.64,0,1.17-0.08,1.58-0.26c0.42-0.2,0.61-0.44,0.61-0.72v-12c0-0.28-0.2-0.52-0.61-0.71c-0.41-0.19-0.94-0.27-1.58-0.27H182
		c-0.65,0-1.18,0.09-1.58,0.27c-0.41,0.19-0.61,0.42-0.61,0.71v12c0,0.29,0.2,0.53,0.61,0.72c0.4,0.18,0.93,0.26,1.58,0.26H190.62z"
		/>
	<path class="st0" d="M78.71,42.34c4.18,1.74,8.28,3.36,12.31,4.83c3.62,1.33,7.38,2.6,11.32,3.8c2.17,0.66,4.32,1.27,6.45,1.83
		c-0.12,9.71-0.84,19-2.24,27.81c-1.61,10.1-4.12,19.57-7.65,28.32c-3.41,8.47-7.82,16.29-13.31,23.35
		c-4.59,5.9-9.92,11.27-16.08,16.04c-6.43-5.3-12.05-11.06-16.86-17.26c-5.7-7.33-10.26-15.21-13.71-23.66
		c-3.49-8.55-5.92-17.79-7.33-27.7c-1.21-8.58-1.65-17.64-1.33-27.19c1.5-0.34,3.03-0.73,4.58-1.16c3.29-0.92,6.7-2.04,10.24-3.33
		c4.15-1.52,8.32-3.21,12.58-5.03c3.26-1.41,6.97-3.07,11.03-4.96C72.22,39.58,75.57,41.03,78.71,42.34 M72.48,172.44l2.67-1.76
		c10.38-6.84,19.1-14.81,26.33-23.81c7.23-9,12.97-19.03,17.37-29.94c4.32-10.71,7.32-22.23,9.16-34.44
		c1.82-12.07,2.5-24.92,2.2-38.45l-0.08-3.72l-0.11-4.95l-4.84-0.96l-3.64-0.72c-3.84-0.76-7.62-1.71-11.36-2.8
		c-3.73-1.09-7.66-2.41-11.76-3.91c-4.1-1.51-8.24-3.15-12.44-4.9c-4.21-1.76-8.52-3.66-12.93-5.65l-1.93-0.86l-2.57-1.16
		l-2.57,1.21l-1.92,0.91c-5.13,2.41-9.83,4.57-13.94,6.35c-4.27,1.85-8.37,3.53-12.32,4.98c-3.75,1.37-7.18,2.47-10.28,3.27
		c-2.97,0.77-5.72,1.26-8.28,1.46l-3.95,0.3l-5.27,0.41l-0.4,5.26l-0.3,3.95c-1.04,13.54-0.78,26.4,0.82,38.57
		c1.61,12.21,4.58,23.7,8.97,34.44c4.45,10.89,10.3,20.9,17.58,30.04c7.3,9.16,16.04,17.46,26.27,24.89l2.57,1.86l3.42,2.49
		L72.48,172.44z"/>
	<path class="st1" d="M42.59,135.15c0-5.94,0.43-11.76,1.27-17.45c-1.83-3.33-3.46-6.76-4.91-10.29c-3.49-8.55-5.92-17.79-7.33-27.7
		c-1.21-8.58-1.65-17.64-1.33-27.19c1.5-0.34,3.03-0.73,4.58-1.16c3.29-0.92,6.7-2.04,10.24-3.33c4.15-1.53,8.32-3.2,12.57-5.03
		c3.26-1.41,6.97-3.08,11.04-4.96c3.51,1.55,6.85,3,9.99,4.31c2.21,0.92,4.41,1.81,6.57,2.66c7.46-5.86,15.66-10.67,24.44-14.25
		c-3.59-1.06-7.37-2.34-11.31-3.78c-4.1-1.51-8.24-3.15-12.44-4.9c-4.2-1.76-8.52-3.66-12.93-5.65l-1.93-0.87l-2.57-1.16l-2.58,1.21
		l-1.92,0.91c-5.13,2.41-9.83,4.57-13.94,6.35c-4.27,1.85-8.37,3.53-12.32,4.98c-3.75,1.37-7.19,2.47-10.28,3.27
		c-2.96,0.77-5.72,1.26-8.28,1.46l-3.95,0.3l-5.27,0.41l-0.4,5.27l-0.3,3.95c-1.03,13.54-0.78,26.4,0.82,38.57
		c1.61,12.21,4.58,23.7,8.96,34.43c4.45,10.89,10.3,20.9,17.58,30.04c2.32,2.91,4.79,5.74,7.4,8.48
		C43.1,147.88,42.59,141.58,42.59,135.15"/>
	<path class="st2" d="M88.96,141.27c6.64-8.55,11.96-17.98,16.08-28.23c4.26-10.57,7.29-22.01,9.24-34.22
		c1.7-10.65,2.57-21.88,2.71-33.61c-2.57-0.68-5.17-1.42-7.8-2.22c-4.76-1.45-9.3-2.98-13.69-4.59c-4.87-1.79-9.82-3.74-14.87-5.84
		c-3.8-1.58-7.84-3.33-12.08-5.21c-4.91,2.27-9.39,4.3-13.34,6c-5.13,2.21-10.18,4.24-15.2,6.08c-4.28,1.56-8.4,2.92-12.38,4.03
		c-1.87,0.52-3.72,0.99-5.53,1.4c-0.38,11.54,0.15,22.5,1.62,32.88c1.69,11.98,4.63,23.15,8.85,33.47
		c4.17,10.2,9.68,19.74,16.56,28.6c5.83,7.5,12.62,14.45,20.39,20.86C76.96,154.89,83.41,148.41,88.96,141.27"/>
	<path class="st3" d="M88.96,141.27c6.64-8.55,11.96-17.98,16.08-28.23c4.26-10.57,7.29-22.01,9.24-34.22
		c1.7-10.65,2.57-21.88,2.71-33.61c-2.57-0.68-5.17-1.42-7.8-2.22c-4.76-1.45-9.3-2.98-13.69-4.59c-4.87-1.79-9.82-3.74-14.87-5.84
		c-3.8-1.58-7.84-3.33-12.08-5.21c-4.91,2.27-9.39,4.3-13.34,6c-5.13,2.21-10.18,4.24-15.2,6.08c-4.28,1.56-8.4,2.92-12.38,4.03
		c-1.87,0.52-3.72,0.99-5.53,1.4c-0.38,11.54,0.15,22.5,1.62,32.88c1.69,11.98,4.63,23.15,8.85,33.47
		c4.17,10.2,9.68,19.74,16.56,28.6c5.83,7.5,12.62,14.45,20.39,20.86C76.96,154.89,83.41,148.41,88.96,141.27"/>
	<path class="st0" d="M113.91,58.58H91.2v1.41h22.72V58.58 M105.91,64.39l0.53-1.41h-6.99l-0.52,1.41H105.91z M104.55,68.14
		l0.53-1.41h-7.01l-0.54,1.41H104.55z M103.11,72.07l0.53-1.4h-6.99l-0.54,1.4H103.11z M101.68,76l0.53-1.41h-7L94.68,76H101.68z
		 M100.24,79.94l0.53-1.42h-6.96l-0.53,1.42H100.24z M98.79,83.86l0.53-1.41h-6.97l-0.53,1.41H98.79z M97.39,87.79l0.52-1.42h-6.99
		l-0.53,1.42H97.39z M95.96,91.72l0.54-1.41h-7l-0.54,1.41H95.96z M94.54,95.65l0.52-1.41H88.1l-0.52,1.41H94.54z M93.08,99.57
		l0.53-1.4h-6.92l-0.54,1.4H93.08z M91.68,103.51l0.52-1.41H85.2l-0.51,1.41H91.68z M90.23,107.44l0.54-1.41h-6.98l-0.54,1.41H90.23
		z M88.8,111.37l0.53-1.42h-6.96l-0.54,1.42H88.8z M87.37,115.29l0.54-1.41h-6.95l-0.54,1.41H87.37z M85.95,119.23l0.53-1.41h-6.95
		l-0.53,1.41H85.95z"/>
	<polyline class="st0" points="87.88,112.58 88.42,111.16 81.47,111.16 80.94,112.58 87.88,112.58 	"/>
	<polyline class="st0" points="90.73,104.71 91.26,103.31 84.3,103.31 83.77,104.71 90.73,104.71 	"/>
	<polyline class="st0" points="89.32,108.64 89.84,107.23 82.88,107.23 82.35,108.64 89.32,108.64 	"/>
	<polyline class="st0" points="85.04,120.43 85.56,119.02 79.54,119.02 78.99,120.43 85.04,120.43 	"/>
	<polyline class="st0" points="86.45,116.51 86.98,115.09 80.04,115.09 79.5,116.51 86.45,116.51 	"/>
	<polyline class="st0" points="97.9,85.07 98.43,83.66 91.43,83.66 90.91,85.07 97.9,85.07 	"/>
	<polyline class="st0" points="113.91,60.22 91.2,60.22 91.2,61.63 113.91,61.63 113.91,60.22 	"/>
	<polyline class="st0" points="96.48,88.99 97.01,87.59 90.02,87.59 89.48,88.99 96.48,88.99 	"/>
	<polyline class="st0" points="93.59,96.86 94.11,95.45 87.19,95.45 86.67,96.86 93.59,96.86 	"/>
	<polyline class="st0" points="95.05,92.93 95.58,91.52 88.62,91.52 88.09,92.93 95.05,92.93 	"/>
	<polyline class="st0" points="103.65,69.35 104.17,67.95 97.16,67.95 96.63,69.35 103.65,69.35 	"/>
	<polyline class="st0" points="99.31,81.14 99.84,79.72 92.87,79.72 92.34,81.14 99.31,81.14 	"/>
	<polyline class="st0" points="92.18,100.79 92.73,99.38 85.71,99.38 85.18,100.79 92.18,100.79 	"/>
	<polyline class="st0" points="105.06,65.43 105.59,64.02 98.59,64.02 98.05,65.43 105.06,65.43 	"/>
	<polyline class="st0" points="102.2,73.28 102.73,71.87 95.73,71.87 95.21,73.28 102.2,73.28 	"/>
	<polyline class="st0" points="100.74,77.22 101.27,75.8 94.31,75.8 93.78,77.22 100.74,77.22 	"/>
	<path class="st1" d="M67.34,58.5H25.05v1.41h42.29V58.5 M58.29,64.31l-0.54-1.41H32.34l0.52,1.41H58.29z M59.66,68.06l-0.51-1.41
		H33.72l0.54,1.41H59.66z M61.08,71.99l-0.54-1.41H35.12l0.53,1.41H61.08z M62.54,75.92L62,74.51H36.58l0.53,1.41H62.54z
		 M63.99,79.85l-0.53-1.42H38.02l0.53,1.42H63.99z M65.37,83.78l-0.54-1.4H39.45l0.51,1.4H65.37z M66.79,87.71l-0.53-1.42H40.86
		l0.53,1.42H66.79z M68.22,91.64l-0.54-1.41H42.29l0.53,1.41H68.22z M69.67,95.56l-0.54-1.4H43.72l0.53,1.4H69.67z M71.11,99.49
		l-0.53-1.4H45.14l0.53,1.4H71.11z M72.55,103.43L72,102.02H46.58l0.53,1.41H72.55z M73.95,107.36l-0.53-1.41H48l0.53,1.41H73.95z
		 M75.37,111.28l-0.53-1.41H49.45l0.53,1.41H75.37z M76.85,115.21l-0.53-1.41H50.87l0.52,1.41H76.85z M78.27,119.15l-0.54-1.42
		H52.29l0.53,1.42H78.27z M84.14,123.06l0.53-1.41H53.74l0.53,1.41H84.14z M82.74,126.96l0.55-1.41H55.13l0.53,1.41H82.74z
		 M81.32,130.87l0.53-1.42H56.57l0.53,1.42H81.32z M79.87,134.77l0.53-1.41H57.96l0.52,1.41H79.87z M78.42,138.71l0.53-1.42H59.38
		l0.53,1.42H78.42z"/>
	<polyline class="st1" points="78.91,135.98 79.45,134.58 58.87,134.58 59.39,135.98 78.91,135.98 	"/>
	<polyline class="st1" points="59.16,65.35 58.63,63.93 33.21,63.93 33.74,65.35 59.16,65.35 	"/>
	<polyline class="st1" points="73.43,104.63 72.9,103.23 47.5,103.23 48.02,104.63 73.43,104.63 	"/>
	<polyline class="st1" points="76.32,112.49 75.79,111.07 50.35,111.07 50.89,112.49 76.32,112.49 	"/>
	<polyline class="st1" points="80.37,132.07 80.9,130.66 57.44,130.66 57.97,132.07 80.37,132.07 	"/>
	<polyline class="st1" points="74.86,108.56 74.33,107.16 48.94,107.16 49.47,108.56 74.86,108.56 	"/>
	<polyline class="st1" points="81.82,128.16 82.36,126.75 56.07,126.75 56.58,128.16 81.82,128.16 	"/>
	<polyline class="st1" points="83.24,124.25 83.78,122.84 54.62,122.84 55.14,124.25 83.24,124.25 	"/>
	<polyline class="st1" points="77.76,116.42 77.22,115.01 51.78,115.01 52.31,116.42 77.76,116.42 	"/>
	<polyline class="st1" points="79.45,120.35 79.16,118.94 53.23,118.94 53.76,120.35 79.45,120.35 	"/>
	<polyline class="st1" points="69.16,92.85 68.62,91.44 43.21,91.44 43.74,92.85 69.16,92.85 	"/>
	<polyline class="st1" points="67.69,88.91 67.16,87.51 41.77,87.51 42.31,88.91 67.69,88.91 	"/>
	<polyline class="st1" points="66.28,84.99 65.75,83.58 40.35,83.58 40.88,84.99 66.28,84.99 	"/>
	<polyline class="st1" points="67.34,60.14 25.05,60.14 25.05,61.55 67.34,61.55 67.34,60.14 	"/>
	<polyline class="st1" points="70.59,96.78 70.07,95.37 44.64,95.37 45.15,96.78 70.59,96.78 	"/>
	<polyline class="st1" points="72.03,100.71 71.5,99.3 46.08,99.3 46.61,100.71 72.03,100.71 	"/>
	<polyline class="st1" points="60.56,69.27 60.03,67.87 34.61,67.87 35.14,69.27 60.56,69.27 	"/>
	<polyline class="st1" points="62.02,73.2 61.5,71.79 36.07,71.79 36.6,73.2 62.02,73.2 	"/>
	<polyline class="st1" points="64.86,81.06 64.34,79.65 38.93,79.65 39.46,81.06 64.86,81.06 	"/>
	<polyline class="st1" points="63.47,77.13 62.93,75.73 37.5,75.73 38.03,77.13 63.47,77.13 	"/>
</g>
</svg>
